<svg width="135" height="100" viewBox="0 0 135 100" fill="none" xmlns="http://www.w3.org/2000/svg">
<g clip-path="url(#clip0_42_134)">
<path d="M66.738 99.7115C66.281 99.7115 65.8544 99.5643 65.4581 99.3067L61.4052 96.3991C60.7956 95.994 61.1004 95.8468 61.2834 95.7733C62.1061 95.4421 62.2585 95.3682 63.1117 94.7796C63.2032 94.7057 63.3253 94.7427 63.4165 94.8163L66.5249 97.0615C66.6468 97.135 66.7992 97.135 66.8904 97.0615L79.0496 88.5589C79.1714 88.4854 79.2326 88.3379 79.2326 88.1541V71.186C79.2326 71.0016 79.1714 70.8548 79.0496 70.7809L66.8904 62.3153C66.7686 62.2414 66.6162 62.2414 66.5249 62.3153L54.3657 70.7809C54.2439 70.8545 54.1827 71.0385 54.1827 71.1857V88.1538C54.1827 88.3013 54.2439 88.485 54.3657 88.5589L57.6874 90.8777C59.4854 91.9819 60.6129 90.6936 60.6129 89.4054V72.658C60.6129 72.4373 60.7653 72.2163 60.9786 72.2163H62.5327C62.7157 72.2163 62.8984 72.4003 62.8984 72.658V89.4054C62.8984 92.3131 61.5879 94.0064 59.3024 94.0064C58.6016 94.0064 58.0532 94.0064 56.4988 93.086L53.2992 90.8777C52.5068 90.3258 52.0193 89.2949 52.0193 88.1908V71.2226C52.0193 70.1185 52.5068 69.0876 53.2992 68.5357L65.4581 60.0331C66.2201 59.5178 67.2564 59.5178 68.0181 60.0331L80.1771 68.5357C80.9694 69.0876 81.4572 70.1185 81.4572 71.2226V88.1908C81.4572 89.2949 80.9694 90.3258 80.1771 90.8777L68.0181 99.3803C67.6218 99.6013 67.1646 99.7115 66.738 99.7115ZM70.4863 88.0436C65.1536 88.0436 64.0564 85.0991 64.0564 82.5962C64.0564 82.3752 64.2088 82.1545 64.4221 82.1545H66.0068C66.1895 82.1545 66.3419 82.3016 66.3419 82.5226C66.5858 84.4733 67.2867 85.4303 70.5169 85.4303C73.0766 85.4303 74.1741 84.7309 74.1741 83.0745C74.1741 82.1175 73.869 81.4185 69.877 80.9398C66.5553 80.5347 64.4831 79.6516 64.4831 76.4494C64.4831 73.4678 66.5555 71.701 70.0294 71.701C73.9299 71.701 75.8499 73.3207 76.0938 76.8538C76.0938 76.9647 76.0633 77.0749 76.0024 77.1854C75.9412 77.2589 75.85 77.3325 75.7585 77.3325H74.1738C74.0214 77.3325 73.869 77.1854 73.8387 77.0013C73.473 74.9771 72.5282 74.3143 70.0294 74.3143C67.2258 74.3143 66.8904 75.4924 66.8904 76.3755C66.8904 77.443 67.2867 77.7742 71.0654 78.3631C74.8137 78.9522 76.5814 79.7987 76.5814 82.964C76.5508 86.2032 74.3568 88.0436 70.4863 88.0436Z" fill="#539E43"/>
<path d="M29.0113 33.3476C29.0113 32.6852 28.7065 32.0591 28.219 31.7279L15.298 22.747C15.0844 22.5995 14.8408 22.5259 14.5971 22.489H14.4751C14.2314 22.489 13.9875 22.5995 13.7742 22.747L0.853247 31.7279C0.365454 32.0591 0.0609131 32.6849 0.0609131 33.3476L0.091499 57.4931C0.091499 57.8244 0.243901 58.1556 0.487534 58.303C0.731431 58.4871 1.03597 58.4871 1.24955 58.303L8.92899 53.0027C9.41652 52.6715 9.72132 52.0457 9.72132 51.3833V40.0833C9.72132 39.4209 10.0259 38.7951 10.5137 38.4638L13.7742 36.1817C14.0181 35.9976 14.2923 35.9237 14.5666 35.9237C14.8408 35.9237 15.115 35.9976 15.3286 36.1817L18.5891 38.4638C19.0769 38.7951 19.3815 39.4205 19.3815 40.0833V51.3833C19.3815 52.0457 19.6863 52.6715 20.1738 53.0027L27.8532 58.303C27.9719 58.3932 28.1092 58.4411 28.2494 58.4411C28.3896 58.4411 28.5269 58.3932 28.6456 58.303C28.8895 58.1556 29.0419 57.8244 29.0419 57.4931L29.0113 33.3476ZM91.1174 0.110345C90.8737 -0.0371072 90.5689 -0.0371072 90.3553 0.110345C90.1117 0.294421 89.9593 0.588689 89.9593 0.919899V24.8451C89.9593 25.0658 89.8681 25.2865 89.6851 25.4339C89.5024 25.5441 89.3194 25.5441 89.1367 25.4339L85.9064 23.1887C85.6696 23.0258 85.4018 22.9402 85.1292 22.9402C84.8567 22.9402 84.5889 23.0258 84.3521 23.1887L71.4311 32.2065C70.9436 32.5377 70.6388 33.1635 70.6388 33.826V51.8247C70.6388 52.4871 70.9436 53.1132 71.4311 53.4444L84.3521 62.4623C84.5889 62.6251 84.8567 62.7108 85.1292 62.7108C85.4018 62.7108 85.6696 62.6251 85.9064 62.4623L98.8274 53.4444C99.3149 53.1132 99.6197 52.4874 99.6197 51.8247V6.95652C99.6197 6.25716 99.3149 5.63168 98.8274 5.30015L91.1174 0.110345ZM89.929 45.8989C89.929 46.083 89.8681 46.2301 89.746 46.3037L85.3274 49.3954C85.2657 49.4317 85.1979 49.4506 85.1292 49.4506C85.0606 49.4506 84.9928 49.4317 84.9311 49.3954L80.5125 46.3037C80.3904 46.2301 80.3295 46.046 80.3295 45.8989V39.7151C80.3295 39.531 80.3904 39.3839 80.5125 39.3103L84.9311 36.2183C84.9928 36.1819 85.0606 36.163 85.1292 36.163C85.1979 36.163 85.2657 36.1819 85.3274 36.2183L89.746 39.3103C89.8681 39.3836 89.929 39.568 89.929 39.7151V45.8989ZM134.116 39.568C134.604 39.2368 134.878 38.611 134.878 37.9482V33.5683C134.878 32.9059 134.573 32.2801 134.116 31.9489L121.287 22.968C121.05 22.8051 120.782 22.7195 120.51 22.7195C120.237 22.7195 119.969 22.8051 119.732 22.968L106.811 31.9855C106.324 32.3167 106.019 32.9425 106.019 33.6049V51.604C106.019 52.2664 106.324 52.8922 106.811 53.2234L119.641 62.0572C120.129 62.3884 120.708 62.3884 121.165 62.0572L128.936 56.831C129.179 56.6836 129.332 56.3524 129.332 56.0212C129.332 55.69 129.179 55.3587 128.936 55.2113L115.954 46.1935C115.71 46.0094 115.557 45.7151 115.557 45.3839V39.7524C115.557 39.4212 115.71 39.09 115.954 38.9425L120.007 36.1451C120.125 36.0549 120.263 36.007 120.403 36.007C120.543 36.007 120.68 36.0549 120.799 36.1451L124.852 38.9425C125.096 39.1266 125.248 39.4209 125.248 39.7524V44.1693C125.248 44.5005 125.401 44.8317 125.644 44.9788C125.763 45.069 125.9 45.1169 126.041 45.1169C126.181 45.1169 126.318 45.069 126.437 44.9788L134.116 39.568Z" fill="#333333"/>
<path d="M120.311 38.7214C120.357 38.6853 120.41 38.6661 120.464 38.6661C120.518 38.6661 120.571 38.6853 120.616 38.7214L123.085 40.4513C123.176 40.5252 123.237 40.6354 123.237 40.7825V44.2427C123.237 44.3898 123.176 44.5003 123.085 44.5739L120.616 46.3038C120.571 46.3399 120.518 46.3591 120.464 46.3591C120.41 46.3591 120.357 46.3399 120.311 46.3038L117.843 44.5739C117.752 44.5003 117.691 44.3898 117.691 44.2427V40.7828C117.691 40.6354 117.751 40.5249 117.843 40.4516L120.311 38.7214Z" fill="#539E43"/>
<path d="M50.6173 23.0418C50.3806 22.8789 50.1128 22.7933 49.8403 22.7933C49.5678 22.7933 49.3001 22.8789 49.0633 23.0418L36.2338 31.9854C35.746 32.3166 35.4718 32.9424 35.4718 33.6048V51.5303C35.4718 52.1927 35.7766 52.8185 36.2338 53.1497L49.0633 62.094C49.3001 62.2568 49.5678 62.3424 49.8403 62.3424C50.1128 62.3424 50.3806 62.2568 50.6173 62.094L63.4471 53.1497C63.9346 52.8185 64.2091 52.1927 64.2091 51.5303V33.6051C64.2091 32.9427 63.904 32.3169 63.4471 31.9857L50.6173 23.0418Z" fill="url(#paint0_linear_42_134)"/>
</g>
<defs>
<linearGradient id="paint0_linear_42_134" x1="1995.01" y1="714.388" x2="183.175" y2="3071.45" gradientUnits="userSpaceOnUse">
<stop stop-color="#41873F"/>
<stop offset="0.3288" stop-color="#418B3D"/>
<stop offset="0.6352" stop-color="#419637"/>
<stop offset="0.9319" stop-color="#3FA92D"/>
<stop offset="1" stop-color="#3FAE2A"/>
</linearGradient>
<clipPath id="clip0_42_134">
<rect width="135" height="100" fill="white"/>
</clipPath>
</defs>
</svg>
